<svg xmlns="http://www.w3.org/2000/svg" width="1254" height="1254" viewBox="0 0 1254 1254"><defs><linearGradient id="bg" x1="0" y1="0" x2="0" y2="1"><stop offset="0" stop-color="#02010d"/><stop offset=".55" stop-color="#02010a"/><stop offset="1" stop-color="#010107"/></linearGradient><radialGradient id="atmo" cx="50%" cy="46%" r="55%"><stop offset="0" stop-color="#13074a" stop-opacity=".18"/><stop offset=".55" stop-color="#080229" stop-opacity=".08"/><stop offset="1" stop-color="#000" stop-opacity="0"/></radialGradient><radialGradient id="body" cx="50%" cy="48%" r="55%"><stop offset="0" stop-color="#01010c"/><stop offset=".58" stop-color="#02010f"/><stop offset=".83" stop-color="#050119"/><stop offset="1" stop-color="#0c0328"/></radialGradient><radialGradient id="top" cx="50%" cy="-2%" r="62%"><stop offset="0" stop-color="#5e2af0" stop-opacity=".50"/><stop offset=".35" stop-color="#35159d" stop-opacity=".30"/><stop offset=".75" stop-color="#1b0958" stop-opacity=".10"/><stop offset="1" stop-color="#000" stop-opacity="0"/></radialGradient><radialGradient id="left" cx="-2%" cy="62%" r="61%"><stop offset="0" stop-color="#235dff" stop-opacity=".56"/><stop offset=".34" stop-color="#1834bd" stop-opacity=".36"/><stop offset=".72" stop-color="#0b165d" stop-opacity=".12"/><stop offset="1" stop-color="#000" stop-opacity="0"/></radialGradient><radialGradient id="ll" cx="10%" cy="92%" r="52%"><stop offset="0" stop-color="#54a3ff" stop-opacity=".52"/><stop offset=".35" stop-color="#334be0" stop-opacity=".36"/><stop offset=".72" stop-color="#151367" stop-opacity=".12"/><stop offset="1" stop-color="#000" stop-opacity="0"/></radialGradient><radialGradient id="right" cx="102%" cy="52%" r="60%"><stop offset="0" stop-color="#ff8b78" stop-opacity=".56"/><stop offset=".27" stop-color="#f25e82" stop-opacity=".44"/><stop offset=".58" stop-color="#a52d68" stop-opacity=".24"/><stop offset=".88" stop-color="#4d123b" stop-opacity=".06"/><stop offset="1" stop-color="#000" stop-opacity="0"/></radialGradient><radialGradient id="lr" cx="84%" cy="94%" r="55%"><stop offset="0" stop-color="#f56cff" stop-opacity=".50"/><stop offset=".36" stop-color="#9b32c6" stop-opacity=".32"/><stop offset=".74" stop-color="#421250" stop-opacity=".10"/><stop offset="1" stop-color="#000" stop-opacity="0"/></radialGradient><radialGradient id="dark" cx="50%" cy="50%" r="51%"><stop offset="0" stop-color="#01010b" stop-opacity=".94"/><stop offset=".48" stop-color="#01010b" stop-opacity=".84"/><stop offset=".75" stop-color="#01010b" stop-opacity=".50"/><stop offset=".94" stop-color="#01010b" stop-opacity=".08"/><stop offset="1" stop-color="#01010b" stop-opacity="0"/></radialGradient><linearGradient id="refl" x1="0" y1="0" x2="1" y2="0"><stop offset="0" stop-color="#214dff"/><stop offset=".30" stop-color="#4a55ff"/><stop offset=".52" stop-color="#9d5cff"/><stop offset=".72" stop-color="#e765ff"/><stop offset="1" stop-color="#ff91d7"/></linearGradient><filter id="ew" x="-35%" y="-35%" width="170%" height="170%"><feGaussianBlur stdDeviation="24"/></filter><filter id="em" x="-25%" y="-25%" width="150%" height="150%"><feGaussianBlur stdDeviation="9"/></filter><filter id="iw" x="-35%" y="-35%" width="170%" height="170%"><feGaussianBlur stdDeviation="18"/></filter><filter id="im" x="-25%" y="-25%" width="150%" height="150%"><feGaussianBlur stdDeviation="7"/></filter><filter id="loc" x="-25%" y="-25%" width="150%" height="150%"><feGaussianBlur stdDeviation="7"/></filter><filter id="r1" x="-60%" y="-250%" width="220%" height="600%"><feGaussianBlur stdDeviation="24"/></filter><filter id="r2" x="-60%" y="-250%" width="220%" height="600%"><feGaussianBlur stdDeviation="10"/></filter><filter id="r3" x="-60%" y="-250%" width="220%" height="600%"><feGaussianBlur stdDeviation="4"/></filter><clipPath id="clip"><ellipse cx="628" cy="585" rx="409.5" ry="416.5"/></clipPath><linearGradient id="g0" gradientUnits="userSpaceOnUse" x1="1037.5" y1="585.0" x2="917.6" y2="879.5"><stop offset="0" stop-color="#ff8a7f"/><stop offset="1" stop-color="#ff5ead"/></linearGradient><linearGradient id="g1" gradientUnits="userSpaceOnUse" x1="917.6" y1="879.5" x2="628.0" y2="1001.5"><stop offset="0" stop-color="#ff5ead"/><stop offset="1" stop-color="#b440f3"/></linearGradient><linearGradient id="g2" gradientUnits="userSpaceOnUse" x1="628.0" y1="1001.5" x2="338.4" y2="879.5"><stop offset="0" stop-color="#b440f3"/><stop offset="1" stop-color="#416eff"/></linearGradient><linearGradient id="g3" gradientUnits="userSpaceOnUse" x1="338.4" y1="879.5" x2="218.5" y2="585.0"><stop offset="0" stop-color="#416eff"/><stop offset="1" stop-color="#313cff"/></linearGradient><linearGradient id="g4" gradientUnits="userSpaceOnUse" x1="218.5" y1="585.0" x2="338.4" y2="290.5"><stop offset="0" stop-color="#313cff"/><stop offset="1" stop-color="#6a2cff"/></linearGradient><linearGradient id="g5" gradientUnits="userSpaceOnUse" x1="338.4" y1="290.5" x2="628.0" y2="168.5"><stop offset="0" stop-color="#6a2cff"/><stop offset="1" stop-color="#982aff"/></linearGradient><linearGradient id="g6" gradientUnits="userSpaceOnUse" x1="628.0" y1="168.5" x2="917.6" y2="290.5"><stop offset="0" stop-color="#982aff"/><stop offset="1" stop-color="#ed4fa8"/></linearGradient><linearGradient id="g7" gradientUnits="userSpaceOnUse" x1="917.6" y1="290.5" x2="1037.5" y2="585.0"><stop offset="0" stop-color="#ed4fa8"/><stop offset="1" stop-color="#ff8a7f"/></linearGradient></defs><rect width="1254" height="1254" fill="url(#bg)"/><rect width="1254" height="1254" fill="url(#atmo)"/><path d="M1037.5,585.0 A409.5,416.5 0 0 1 917.6,879.5" fill="none" stroke="url(#g0)" stroke-width="62" stroke-linecap="round" opacity="0.26" filter="url(#ew)"/><path d="M917.6,879.5 A409.5,416.5 0 0 1 628.0,1001.5" fill="none" stroke="url(#g1)" stroke-width="62" stroke-linecap="round" opacity="0.26" filter="url(#ew)"/><path d="M628.0,1001.5 A409.5,416.5 0 0 1 338.4,879.5" fill="none" stroke="url(#g2)" stroke-width="62" stroke-linecap="round" opacity="0.26" filter="url(#ew)"/><path d="M338.4,879.5 A409.5,416.5 0 0 1 218.5,585.0" fill="none" stroke="url(#g3)" stroke-width="62" stroke-linecap="round" opacity="0.26" filter="url(#ew)"/><path d="M218.5,585.0 A409.5,416.5 0 0 1 338.4,290.5" fill="none" stroke="url(#g4)" stroke-width="62" stroke-linecap="round" opacity="0.26" filter="url(#ew)"/><path d="M338.4,290.5 A409.5,416.5 0 0 1 628.0,168.5" fill="none" stroke="url(#g5)" stroke-width="62" stroke-linecap="round" opacity="0.26" filter="url(#ew)"/><path d="M628.0,168.5 A409.5,416.5 0 0 1 917.6,290.5" fill="none" stroke="url(#g6)" stroke-width="62" stroke-linecap="round" opacity="0.26" filter="url(#ew)"/><path d="M917.6,290.5 A409.5,416.5 0 0 1 1037.5,585.0" fill="none" stroke="url(#g7)" stroke-width="62" stroke-linecap="round" opacity="0.26" filter="url(#ew)"/><path d="M1037.5,585.0 A409.5,416.5 0 0 1 917.6,879.5" fill="none" stroke="url(#g0)" stroke-width="26" stroke-linecap="round" opacity="0.58" filter="url(#em)"/><path d="M917.6,879.5 A409.5,416.5 0 0 1 628.0,1001.5" fill="none" stroke="url(#g1)" stroke-width="26" stroke-linecap="round" opacity="0.58" filter="url(#em)"/><path d="M628.0,1001.5 A409.5,416.5 0 0 1 338.4,879.5" fill="none" stroke="url(#g2)" stroke-width="26" stroke-linecap="round" opacity="0.58" filter="url(#em)"/><path d="M338.4,879.5 A409.5,416.5 0 0 1 218.5,585.0" fill="none" stroke="url(#g3)" stroke-width="26" stroke-linecap="round" opacity="0.58" filter="url(#em)"/><path d="M218.5,585.0 A409.5,416.5 0 0 1 338.4,290.5" fill="none" stroke="url(#g4)" stroke-width="26" stroke-linecap="round" opacity="0.58" filter="url(#em)"/><path d="M338.4,290.5 A409.5,416.5 0 0 1 628.0,168.5" fill="none" stroke="url(#g5)" stroke-width="26" stroke-linecap="round" opacity="0.58" filter="url(#em)"/><path d="M628.0,168.5 A409.5,416.5 0 0 1 917.6,290.5" fill="none" stroke="url(#g6)" stroke-width="26" stroke-linecap="round" opacity="0.58" filter="url(#em)"/><path d="M917.6,290.5 A409.5,416.5 0 0 1 1037.5,585.0" fill="none" stroke="url(#g7)" stroke-width="26" stroke-linecap="round" opacity="0.58" filter="url(#em)"/><ellipse cx="640" cy="1073" rx="245" ry="58" fill="url(#refl)" opacity=".52" filter="url(#r1)"/><ellipse cx="640" cy="1067" rx="190" ry="34" fill="url(#refl)" opacity=".72" filter="url(#r2)"/><ellipse cx="640" cy="1061" rx="120" ry="14" fill="url(#refl)" opacity=".92" filter="url(#r3)"/><ellipse cx="640" cy="1058" rx="82" ry="6" fill="#e8b6ff" opacity=".72" filter="url(#r3)"/><ellipse cx="628" cy="585" rx="409.5" ry="416.5" fill="url(#body)"/><g clip-path="url(#clip)"><rect x="170" y="150" width="920" height="870" fill="url(#top)"/><rect x="170" y="150" width="920" height="870" fill="url(#left)"/><rect x="170" y="150" width="920" height="870" fill="url(#ll)"/><rect x="170" y="150" width="920" height="870" fill="url(#right)"/><rect x="170" y="150" width="920" height="870" fill="url(#lr)"/><rect x="170" y="150" width="920" height="870" fill="url(#dark)"/></g><g clip-path="url(#clip)"><path d="M1037.5,585.0 A409.5,416.5 0 0 1 917.6,879.5" fill="none" stroke="url(#g0)" stroke-width="70" stroke-linecap="round" opacity="0.82" filter="url(#iw)"/><path d="M917.6,879.5 A409.5,416.5 0 0 1 628.0,1001.5" fill="none" stroke="url(#g1)" stroke-width="70" stroke-linecap="round" opacity="0.82" filter="url(#iw)"/><path d="M628.0,1001.5 A409.5,416.5 0 0 1 338.4,879.5" fill="none" stroke="url(#g2)" stroke-width="70" stroke-linecap="round" opacity="0.82" filter="url(#iw)"/><path d="M338.4,879.5 A409.5,416.5 0 0 1 218.5,585.0" fill="none" stroke="url(#g3)" stroke-width="70" stroke-linecap="round" opacity="0.82" filter="url(#iw)"/><path d="M218.5,585.0 A409.5,416.5 0 0 1 338.4,290.5" fill="none" stroke="url(#g4)" stroke-width="70" stroke-linecap="round" opacity="0.82" filter="url(#iw)"/><path d="M338.4,290.5 A409.5,416.5 0 0 1 628.0,168.5" fill="none" stroke="url(#g5)" stroke-width="70" stroke-linecap="round" opacity="0.82" filter="url(#iw)"/><path d="M628.0,168.5 A409.5,416.5 0 0 1 917.6,290.5" fill="none" stroke="url(#g6)" stroke-width="70" stroke-linecap="round" opacity="0.82" filter="url(#iw)"/><path d="M917.6,290.5 A409.5,416.5 0 0 1 1037.5,585.0" fill="none" stroke="url(#g7)" stroke-width="70" stroke-linecap="round" opacity="0.82" filter="url(#iw)"/><path d="M1037.5,585.0 A409.5,416.5 0 0 1 917.6,879.5" fill="none" stroke="url(#g0)" stroke-width="34" stroke-linecap="round" opacity="0.82" filter="url(#im)"/><path d="M917.6,879.5 A409.5,416.5 0 0 1 628.0,1001.5" fill="none" stroke="url(#g1)" stroke-width="34" stroke-linecap="round" opacity="0.82" filter="url(#im)"/><path d="M628.0,1001.5 A409.5,416.5 0 0 1 338.4,879.5" fill="none" stroke="url(#g2)" stroke-width="34" stroke-linecap="round" opacity="0.82" filter="url(#im)"/><path d="M338.4,879.5 A409.5,416.5 0 0 1 218.5,585.0" fill="none" stroke="url(#g3)" stroke-width="34" stroke-linecap="round" opacity="0.82" filter="url(#im)"/><path d="M218.5,585.0 A409.5,416.5 0 0 1 338.4,290.5" fill="none" stroke="url(#g4)" stroke-width="34" stroke-linecap="round" opacity="0.82" filter="url(#im)"/><path d="M338.4,290.5 A409.5,416.5 0 0 1 628.0,168.5" fill="none" stroke="url(#g5)" stroke-width="34" stroke-linecap="round" opacity="0.82" filter="url(#im)"/><path d="M628.0,168.5 A409.5,416.5 0 0 1 917.6,290.5" fill="none" stroke="url(#g6)" stroke-width="34" stroke-linecap="round" opacity="0.82" filter="url(#im)"/><path d="M917.6,290.5 A409.5,416.5 0 0 1 1037.5,585.0" fill="none" stroke="url(#g7)" stroke-width="34" stroke-linecap="round" opacity="0.82" filter="url(#im)"/></g><path d="M1037.5,585.0 A409.5,416.5 0 0 1 917.6,879.5" fill="none" stroke="url(#g0)" stroke-width="8.5" stroke-linecap="round" opacity=".96"/><path d="M917.6,879.5 A409.5,416.5 0 0 1 628.0,1001.5" fill="none" stroke="url(#g1)" stroke-width="8.5" stroke-linecap="round" opacity=".96"/><path d="M628.0,1001.5 A409.5,416.5 0 0 1 338.4,879.5" fill="none" stroke="url(#g2)" stroke-width="8.5" stroke-linecap="round" opacity=".96"/><path d="M338.4,879.5 A409.5,416.5 0 0 1 218.5,585.0" fill="none" stroke="url(#g3)" stroke-width="8.5" stroke-linecap="round" opacity=".96"/><path d="M218.5,585.0 A409.5,416.5 0 0 1 338.4,290.5" fill="none" stroke="url(#g4)" stroke-width="8.5" stroke-linecap="round" opacity=".96"/><path d="M338.4,290.5 A409.5,416.5 0 0 1 628.0,168.5" fill="none" stroke="url(#g5)" stroke-width="8.5" stroke-linecap="round" opacity=".96"/><path d="M628.0,168.5 A409.5,416.5 0 0 1 917.6,290.5" fill="none" stroke="url(#g6)" stroke-width="8.5" stroke-linecap="round" opacity=".96"/><path d="M917.6,290.5 A409.5,416.5 0 0 1 1037.5,585.0" fill="none" stroke="url(#g7)" stroke-width="8.5" stroke-linecap="round" opacity=".96"/><path d="M917.6,290.5 A409.5,416.5 0 0 1 1037.5,585.0" fill="none" stroke="#ffb08d" stroke-width="11" stroke-linecap="round" opacity=".38" filter="url(#loc)"/><path d="M1037.5,585.0 A409.5,416.5 0 0 1 917.6,879.5" fill="none" stroke="#ffb08d" stroke-width="11" stroke-linecap="round" opacity=".38" filter="url(#loc)"/><path d="M628.0,1001.5 A409.5,416.5 0 0 1 338.4,879.5" fill="none" stroke="#67c6ff" stroke-width="12" stroke-linecap="round" opacity=".34" filter="url(#loc)"/><path d="M338.4,879.5 A409.5,416.5 0 0 1 218.5,585.0" fill="none" stroke="#67c6ff" stroke-width="12" stroke-linecap="round" opacity=".34" filter="url(#loc)"/><ellipse cx="628" cy="585" rx="409.5" ry="416.5" fill="none" stroke="#fffdfd" stroke-width="3.6" opacity=".98"/></svg>